<svg xmlns="http://www.w3.org/2000/svg" viewBox="0 0 1440 120" preserveAspectRatio="none">
  <rect x="0" y="0" width="1440" height="120" fill="#e8f4ff"/>
  <path fill="#ffe8e8" d="M0,0 H1440 V45.7 C27.7,45.7 27.7,49.3 55.4,49.3 C83.1,49.3 83.1,50.9 110.8,50.9 C138.5,50.9 138.5,55.3 166.2,55.3 C193.8,55.3 193.8,49.2 221.5,49.2 C249.2,49.2 249.2,54.7 276.9,54.7 C304.6,54.7 304.6,27.9 332.3,27.9 C360.0,27.9 360.0,41.0 387.7,41.0 C415.4,41.0 415.4,55.3 443.1,55.3 C470.8,55.3 470.8,46.5 498.5,46.5 C526.2,46.5 526.2,54.0 553.8,54.0 C581.5,54.0 581.5,30.4 609.2,30.4 C636.9,30.4 636.9,41.1 664.6,41.1 C692.3,41.1 692.3,34.4 720.0,34.4 C747.7,34.4 747.7,43.3 775.4,43.3 C803.1,43.3 803.1,44.2 830.8,44.2 C858.5,44.2 858.5,27.4 886.2,27.4 C913.8,27.4 913.8,33.5 941.5,33.5 C969.2,33.5 969.2,35.4 996.9,35.4 C1024.6,35.4 1024.6,54.5 1052.3,54.5 C1080.0,54.5 1080.0,50.0 1107.7,50.0 C1135.4,50.0 1135.4,31.8 1163.1,31.8 C1190.8,31.8 1190.8,50.9 1218.5,50.9 C1246.2,50.9 1246.2,31.2 1273.8,31.2 C1301.5,31.2 1301.5,45.5 1329.2,45.5 C1356.9,45.5 1356.9,30.8 1384.6,30.8 C1412.3,30.8 1412.3,27.1 1440.0,27.1 L0,0 Z"/>
  <circle cx="1249.3" cy="17.1" r="7.7" fill="#e8f4ff" opacity="0.9"/>
  <circle cx="1352.2" cy="16.1" r="7.6" fill="#e8f4ff" opacity="0.9"/>
  <circle cx="488.6" cy="12.3" r="5.1" fill="#e8f4ff" opacity="0.9"/>
  <circle cx="1071.7" cy="11.8" r="7.0" fill="#e8f4ff" opacity="0.9"/>
  <circle cx="511.8" cy="12.4" r="5.6" fill="#e8f4ff" opacity="0.9"/>
  <circle cx="561.0" cy="20.0" r="8.3" fill="#e8f4ff" opacity="0.9"/>
  <circle cx="1308.5" cy="13.9" r="8.9" fill="#e8f4ff" opacity="0.9"/>
  <circle cx="876.8" cy="33.0" r="7.9" fill="#e8f4ff" opacity="0.9"/>
  <circle cx="756.1" cy="14.5" r="8.6" fill="#e8f4ff" opacity="0.9"/>
  <circle cx="1418.8" cy="24.2" r="3.7" fill="#e8f4ff" opacity="0.9"/>
  <circle cx="1172.4" cy="27.9" r="8.3" fill="#e8f4ff" opacity="0.9"/>
  <circle cx="1386.8" cy="33.4" r="7.4" fill="#e8f4ff" opacity="0.9"/>
  <circle cx="569.4" cy="21.8" r="6.0" fill="#e8f4ff" opacity="0.9"/>
  <circle cx="1084.6" cy="24.3" r="8.0" fill="#e8f4ff" opacity="0.9"/>
  <circle cx="626.9" cy="91.2" r="5.7" fill="#ffe8e8" opacity="0.32"/>
  <circle cx="1186.7" cy="66.3" r="7.9" fill="#ffe8e8" opacity="0.33"/>
  <circle cx="150.3" cy="91.9" r="4.1" fill="#ffe8e8" opacity="0.49"/>
  <circle cx="980.7" cy="65.2" r="7.8" fill="#ffe8e8" opacity="0.26"/>
  <circle cx="1363.8" cy="55.3" r="4.5" fill="#ffe8e8" opacity="0.37"/>
  <circle cx="403.4" cy="71.8" r="3.5" fill="#ffe8e8" opacity="0.36"/>
  <circle cx="1212.5" cy="70.2" r="6.4" fill="#ffe8e8" opacity="0.34"/>
  <circle cx="1002.8" cy="104.8" r="5.7" fill="#ffe8e8" opacity="0.28"/>
  <circle cx="688.4" cy="90.6" r="8.0" fill="#ffe8e8" opacity="0.49"/>
  <circle cx="440.5" cy="59.7" r="7.7" fill="#ffe8e8" opacity="0.22"/>
</svg>
